<svg width="1266" height="111" viewBox="0 0 1266 111" fill="none" xmlns="http://www.w3.org/2000/svg">
<path fill-rule="evenodd" clip-rule="evenodd" d="M-14 0L39 4.17052C93 8.34104 199 16.6821 306 30.7977C413 45.2341 519 65.7659 626 69.9364C733 74.1069 839 61.5954 946 57.7457C1053 53.5751 1159 57.7457 1213 59.6705L1266 61.5954V111H1213C1159 111 1053 111 946 111C839 111 733 111 626 111C519 111 413 111 306 111C199 111 93 111 39 111H-14V0Z" fill="#20DF7F" fill-opacity="0.8"/>
<path fill-rule="evenodd" clip-rule="evenodd" d="M-14 44.4L28.6667 53.28C71.3333 62.16 156.667 79.92 242 75.48C327.333 71.04 412.667 44.4 498 26.64C583.333 8.88 668.667 0 754 0C839.333 0 924.667 8.88 1010 24.42C1095.33 39.96 1180.67 62.16 1223.33 73.26L1266 84.36V111H1223.33C1180.67 111 1095.33 111 1010 111C924.667 111 839.333 111 754 111C668.667 111 583.333 111 498 111C412.667 111 327.333 111 242 111C156.667 111 71.3333 111 28.6667 111H-14V44.4Z" fill="#224957" fill-opacity="0.8"/>
</svg>
